<svg xmlns="http://www.w3.org/2000/svg" xmlns:xlink="http://www.w3.org/1999/xlink" width="696" zoomAndPan="magnify" viewBox="0 0 522 30.000001" height="40" preserveAspectRatio="xMidYMid meet" version="1.0"><defs><g/></defs><g fill="#ff3131" fill-opacity="1"><g transform="translate(143.658209, 20.830811)"><g><path d="M 0.875 0 L 6.84375 0 C 6.84375 -1.828125 6.859375 -4.21875 6.90625 -6.6875 L 6.96875 -11.71875 L 7.375 -11.71875 L 8.953125 0 L 15.84375 0 L 17.421875 -11.71875 L 17.828125 -11.71875 L 17.890625 -6.703125 C 17.9375 -4.234375 17.953125 -1.828125 17.953125 0 L 23.921875 0 C 23.734375 -4.234375 23.625 -9 23.625 -13.53125 C 23.625 -14.625 23.65625 -15.734375 23.65625 -16.828125 L 13.703125 -16.828125 L 12.65625 -5.9375 L 12.140625 -5.9375 L 11.09375 -16.828125 L 1.140625 -16.828125 L 1.171875 -13.53125 C 1.171875 -9 1.0625 -4.234375 0.875 0 Z M 0.875 0 "/></g></g></g><g fill="#ff3131" fill-opacity="1"><g transform="translate(168.451173, 20.830811)"><g><path d="M 17.796875 0 C 16.765625 -5.265625 15.484375 -11.9375 14.625 -16.828125 L 3.140625 -16.828125 C 2.25 -11.734375 1 -5.078125 0 0 L 6.75 0 C 6.796875 -0.484375 6.921875 -1.484375 7.109375 -2.765625 L 8.875 -2.765625 C 9.421875 -2.765625 10 -2.765625 10.546875 -2.765625 L 10.90625 0 Z M 7.640625 -6.25 L 8.6875 -13.21875 L 8.953125 -13.21875 C 9.40625 -10.234375 9.734375 -8.28125 10.03125 -6.25 Z M 7.640625 -6.25 "/></g></g></g><g fill="#ff3131" fill-opacity="1"><g transform="translate(186.251816, 20.830811)"><g><path d="M 0.875 0 L 7.515625 0 C 7.515625 -0.328125 7.484375 -4.703125 7.515625 -5.46875 L 9.265625 -5.46875 C 10.59375 -5.46875 10.671875 -5.03125 10.671875 -3.84375 C 10.671875 -2.34375 10.765625 -1.234375 10.921875 0 L 18.09375 0 C 17.796875 -0.8125 17.421875 -3.15625 17.421875 -4 C 17.421875 -6.171875 15.921875 -7.28125 11.515625 -7.28125 L 11.515625 -7.671875 C 15.671875 -7.671875 17.421875 -8.734375 17.421875 -12.3125 C 17.421875 -16.015625 14.6875 -16.828125 9.90625 -16.828125 L 0.875 -16.828125 C 0.953125 -14.015625 1 -11.234375 1 -8.40625 C 1 -5.609375 0.953125 -2.828125 0.875 0 Z M 7.4375 -9.09375 L 7.4375 -12.40625 L 8.6875 -12.40625 C 9.796875 -12.40625 10.5625 -12.0625 10.5625 -10.78125 C 10.5625 -9.46875 9.75 -9.09375 8.78125 -9.09375 Z M 7.4375 -9.09375 "/></g></g></g><g fill="#ff3131" fill-opacity="1"><g transform="translate(205.000937, 20.830811)"><g><path d="M 15.03125 -6.265625 C 14.421875 -7.703125 14.078125 -7.875 10.296875 -8.28125 L 10.296875 -8.609375 C 13.9375 -9.046875 14.5 -9.21875 15.03125 -10.5625 L 17.515625 -16.828125 L 10.546875 -16.828125 L 7.96875 -9.734375 L 7.34375 -9.734375 L 7.515625 -16.828125 L 0.875 -16.828125 C 0.953125 -13.984375 1 -10.90625 1 -8.40625 C 1 -5.890625 0.953125 -2.828125 0.875 0 L 7.515625 0 L 7.34375 -7 L 7.9375 -7 L 10.375 0 L 17.65625 0 Z M 15.03125 -6.265625 "/></g></g></g><g fill="#ff3131" fill-opacity="1"><g transform="translate(222.757457, 20.830811)"><g><path d="M 0.875 0 L 14.890625 0 L 14.890625 -4.765625 L 7.484375 -4.765625 L 7.484375 -6.765625 L 14.25 -6.546875 L 14.25 -10.28125 L 7.484375 -10.0625 L 7.484375 -12.0625 L 14.875 -12.0625 L 14.875 -16.828125 L 0.875 -16.828125 C 0.953125 -14.875 1.015625 -11.359375 1.015625 -8.421875 C 1.015625 -5.6875 0.953125 -1.71875 0.875 0 Z M 0.875 0 "/></g></g></g><g fill="#ff3131" fill-opacity="1"><g transform="translate(238.308206, 20.830811)"><g><path d="M 3.734375 0 L 10.4375 0 C 10.390625 -2.46875 10.375 -4.984375 10.375 -7.515625 L 10.390625 -11.890625 C 11.578125 -11.890625 13.375 -11.84375 14.28125 -11.796875 L 14.28125 -16.828125 L 0 -16.828125 L 0 -11.796875 C 1.0625 -11.84375 2.671875 -11.890625 3.8125 -11.890625 C 3.84375 -11.140625 3.859375 -9.40625 3.859375 -8.125 C 3.859375 -5.6875 3.796875 -2.71875 3.734375 0 Z M 3.734375 0 "/></g></g></g><g fill="#ff3131" fill-opacity="1"><g transform="translate(252.579601, 20.830811)"><g/></g></g><g fill="#ff3131" fill-opacity="1"><g transform="translate(257.873472, 20.830811)"><g><path d="M 0.875 0 L 9.3125 0 C 14.890625 0 16.984375 -2.765625 16.984375 -8.421875 C 16.984375 -13.984375 14.546875 -16.828125 8.796875 -16.828125 L 0.875 -16.828125 C 0.96875 -14.3125 1.015625 -11.234375 1.015625 -8.421875 C 1.015625 -5.625 0.96875 -2.796875 0.875 0 Z M 7.5 -4.40625 L 7.5 -12.421875 L 8.5625 -12.421875 C 9.953125 -12.421875 10.328125 -11.234375 10.328125 -8.359375 C 10.328125 -5.515625 10.109375 -4.40625 8.6875 -4.40625 Z M 7.5 -4.40625 "/></g></g></g><g fill="#ff3131" fill-opacity="1"><g transform="translate(275.519708, 20.830811)"><g><path d="M 8.03125 0.3125 C 13.328125 0.3125 16.421875 -0.90625 16.421875 -6.046875 L 16.390625 -10.21875 C 16.390625 -12.421875 16.390625 -14.609375 16.453125 -16.828125 L 9.84375 -16.828125 C 9.859375 -15.25 9.90625 -10.390625 9.90625 -8.65625 C 9.90625 -5.875 9.90625 -5.34375 9.6875 -4.609375 C 9.28125 -4.390625 9 -4.390625 8.828125 -4.390625 C 7.640625 -4.390625 7.484375 -6.359375 7.484375 -8.84375 L 7.5 -16.828125 L 0.875 -16.828125 C 0.953125 -15.296875 1 -13.5625 1 -11.71875 L 1 -6.6875 C 1 -1.703125 3.09375 0.3125 8.03125 0.3125 Z M 8.03125 0.3125 "/></g></g></g><g fill="#ff3131" fill-opacity="1"><g transform="translate(292.85713, 20.830811)"><g><path d="M 0.875 0 L 6.84375 0 C 6.84375 -1.828125 6.859375 -4.21875 6.90625 -6.6875 L 6.96875 -11.71875 L 7.375 -11.71875 L 8.953125 0 L 15.84375 0 L 17.421875 -11.71875 L 17.828125 -11.71875 L 17.890625 -6.703125 C 17.9375 -4.234375 17.953125 -1.828125 17.953125 0 L 23.921875 0 C 23.734375 -4.234375 23.625 -9 23.625 -13.53125 C 23.625 -14.625 23.65625 -15.734375 23.65625 -16.828125 L 13.703125 -16.828125 L 12.65625 -5.9375 L 12.140625 -5.9375 L 11.09375 -16.828125 L 1.140625 -16.828125 L 1.171875 -13.53125 C 1.171875 -9 1.0625 -4.234375 0.875 0 Z M 0.875 0 "/></g></g></g><g fill="#ff3131" fill-opacity="1"><g transform="translate(317.650094, 20.830811)"><g><path d="M 0.875 0 L 7.515625 0 C 7.5 -0.53125 7.484375 -3.046875 7.484375 -3.171875 L 10.453125 -3.171875 C 14.453125 -3.171875 17.3125 -5.25 17.3125 -10.21875 C 17.3125 -14.71875 14.984375 -16.828125 10.234375 -16.828125 L 0.875 -16.828125 C 0.90625 -14.28125 0.921875 -11.5 0.921875 -8.421875 C 0.921875 -5.3125 0.90625 -2.53125 0.875 0 Z M 7.4375 -7.21875 L 7.4375 -12.40625 L 8.71875 -12.40625 C 9.8125 -12.40625 10.5625 -11.875 10.5625 -9.890625 C 10.5625 -7.8125 9.796875 -7.21875 8.796875 -7.21875 Z M 7.4375 -7.21875 "/></g></g></g><g fill="#ff3131" fill-opacity="1"><g transform="translate(335.627193, 20.830811)"><g><path d="M 9.46875 0.265625 C 13.75 0.265625 17.1875 -1.609375 17.1875 -5.125 C 17.1875 -7.9375 16.0625 -9.265625 9.25 -9.265625 C 7.875 -9.265625 7.65625 -9.90625 7.65625 -10.921875 C 7.65625 -11.453125 7.65625 -11.765625 7.875 -12.28125 C 8.234375 -12.515625 8.578125 -12.53125 8.6875 -12.53125 C 10.71875 -12.53125 10.59375 -11.46875 10.640625 -9.859375 L 17.296875 -10.28125 C 16.984375 -15.046875 14.34375 -17.171875 8.90625 -17.171875 C 4.375 -17.171875 0.96875 -15.375 0.96875 -11.671875 C 0.96875 -8.90625 2.375 -6.859375 8.953125 -6.859375 C 10.40625 -6.859375 10.59375 -6.46875 10.59375 -5.453125 C 10.59375 -5.015625 10.59375 -4.8125 10.375 -4.390625 C 10.03125 -4.171875 9.640625 -4.125 9.546875 -4.125 C 8.09375 -4.125 7.890625 -5.3125 7.890625 -6.0625 L 0.65625 -5.5 C 1.125 -0.875 4.21875 0.265625 9.46875 0.265625 Z M 9.46875 0.265625 "/></g></g></g><g fill="#ff3131" fill-opacity="1"><g transform="translate(37.752863, 20.312379)"><g><path d="M 3.5625 0 L 9.953125 0 C 9.90625 -2.359375 9.890625 -4.75 9.890625 -7.171875 L 9.90625 -11.34375 C 11.046875 -11.34375 12.75 -11.296875 13.625 -11.265625 L 13.625 -16.0625 L 0 -16.0625 L 0 -11.265625 C 1.015625 -11.296875 2.546875 -11.34375 3.640625 -11.34375 C 3.65625 -10.625 3.6875 -8.96875 3.6875 -7.75 C 3.6875 -5.4375 3.625 -2.59375 3.5625 0 Z M 3.5625 0 "/></g></g></g><g fill="#ff3131" fill-opacity="1"><g transform="translate(51.371192, 20.312379)"><g><path d="M 0.84375 0 L 7.171875 0 C 7.171875 -0.3125 7.140625 -4.484375 7.171875 -5.21875 L 8.84375 -5.21875 C 10.109375 -5.21875 10.1875 -4.796875 10.1875 -3.65625 C 10.1875 -2.234375 10.265625 -1.171875 10.421875 0 L 17.265625 0 C 16.984375 -0.78125 16.625 -3.015625 16.625 -3.8125 C 16.625 -5.890625 15.203125 -6.953125 10.984375 -6.953125 L 10.984375 -7.328125 C 14.9375 -7.328125 16.625 -8.328125 16.625 -11.75 C 16.625 -15.28125 14.015625 -16.0625 9.453125 -16.0625 L 0.84375 -16.0625 C 0.90625 -13.359375 0.953125 -10.71875 0.953125 -8.015625 C 0.953125 -5.34375 0.90625 -2.6875 0.84375 0 Z M 7.09375 -8.671875 L 7.09375 -11.828125 L 8.296875 -11.828125 C 9.34375 -11.828125 10.078125 -11.515625 10.078125 -10.296875 C 10.078125 -9.03125 9.296875 -8.671875 8.375 -8.671875 Z M 7.09375 -8.671875 "/></g></g></g><g fill="#ff3131" fill-opacity="1"><g transform="translate(69.26235, 20.312379)"><g><path d="M 16.984375 0 C 16 -5.03125 14.78125 -11.390625 13.953125 -16.0625 L 2.984375 -16.0625 C 2.140625 -11.203125 0.953125 -4.84375 0 0 L 6.4375 0 C 6.484375 -0.46875 6.609375 -1.40625 6.78125 -2.625 L 8.453125 -2.625 C 8.984375 -2.625 9.53125 -2.625 10.0625 -2.625 L 10.390625 0 Z M 7.28125 -5.953125 L 8.296875 -12.609375 L 8.546875 -12.609375 C 8.96875 -9.765625 9.28125 -7.890625 9.578125 -5.953125 Z M 7.28125 -5.953125 "/></g></g></g><g fill="#ff3131" fill-opacity="1"><g transform="translate(86.24842, 20.312379)"><g><path d="M 0.84375 0 L 8.875 0 C 14.203125 0 16.203125 -2.625 16.203125 -8.046875 C 16.203125 -13.34375 13.875 -16.0625 8.390625 -16.0625 L 0.84375 -16.0625 C 0.921875 -13.65625 0.96875 -10.71875 0.96875 -8.046875 C 0.96875 -5.359375 0.921875 -2.671875 0.84375 0 Z M 7.15625 -4.203125 L 7.15625 -11.84375 L 8.171875 -11.84375 C 9.484375 -11.84375 9.84375 -10.71875 9.84375 -7.984375 C 9.84375 -5.265625 9.640625 -4.203125 8.296875 -4.203125 Z M 7.15625 -4.203125 "/></g></g></g><g fill="#ff3131" fill-opacity="1"><g transform="translate(103.087161, 20.312379)"><g><path d="M 0.84375 0 L 14.203125 0 L 14.203125 -4.546875 L 7.140625 -4.546875 L 7.140625 -6.46875 L 13.59375 -6.25 L 13.59375 -9.8125 L 7.140625 -9.59375 L 7.140625 -11.515625 L 14.1875 -11.515625 L 14.1875 -16.0625 L 0.84375 -16.0625 C 0.90625 -14.1875 0.96875 -10.84375 0.96875 -8.046875 C 0.96875 -5.4375 0.90625 -1.640625 0.84375 0 Z M 0.84375 0 "/></g></g></g><g fill="#ff3131" fill-opacity="1"><g transform="translate(375.270645, 19.664515)"><g><path d="M 17.015625 0 C 16.03125 -5.046875 14.8125 -11.40625 13.984375 -16.09375 L 3 -16.09375 C 2.15625 -11.21875 0.953125 -4.859375 0 0 L 6.453125 0 C 6.5 -0.46875 6.625 -1.40625 6.796875 -2.640625 L 8.484375 -2.640625 C 9 -2.640625 9.5625 -2.640625 10.078125 -2.640625 L 10.421875 0 Z M 7.296875 -5.96875 L 8.3125 -12.640625 L 8.5625 -12.640625 C 8.984375 -9.78125 9.296875 -7.90625 9.59375 -5.96875 Z M 7.296875 -5.96875 "/></g></g></g><g fill="#ff3131" fill-opacity="1"><g transform="translate(392.284092, 19.664515)"><g><path d="M 9.046875 0.25 C 13.140625 0.25 16.4375 -1.546875 16.4375 -4.890625 C 16.4375 -7.59375 15.359375 -8.859375 8.84375 -8.859375 C 7.53125 -8.859375 7.3125 -9.46875 7.3125 -10.4375 C 7.3125 -10.953125 7.3125 -11.25 7.53125 -11.75 C 7.875 -11.953125 8.203125 -11.984375 8.3125 -11.984375 C 10.25 -11.984375 10.125 -10.96875 10.171875 -9.421875 L 16.53125 -9.828125 C 16.25 -14.390625 13.71875 -16.40625 8.515625 -16.40625 C 4.171875 -16.40625 0.921875 -14.703125 0.921875 -11.15625 C 0.921875 -8.515625 2.28125 -6.5625 8.5625 -6.5625 C 9.953125 -6.5625 10.125 -6.1875 10.125 -5.203125 C 10.125 -4.78125 10.125 -4.59375 9.921875 -4.203125 C 9.59375 -3.984375 9.21875 -3.9375 9.140625 -3.9375 C 7.734375 -3.9375 7.546875 -5.078125 7.546875 -5.796875 L 0.640625 -5.25 C 1.078125 -0.84375 4.03125 0.25 9.046875 0.25 Z M 9.046875 0.25 "/></g></g></g><g fill="#ff3131" fill-opacity="1"><g transform="translate(409.445113, 19.664515)"><g><path d="M 14.359375 -5.984375 C 13.796875 -7.359375 13.453125 -7.53125 9.84375 -7.90625 L 9.84375 -8.234375 C 13.328125 -8.65625 13.859375 -8.8125 14.359375 -10.109375 L 16.75 -16.09375 L 10.078125 -16.09375 L 7.609375 -9.296875 L 7.03125 -9.296875 L 7.1875 -16.09375 L 0.84375 -16.09375 C 0.90625 -13.375 0.953125 -10.421875 0.953125 -8.03125 C 0.953125 -5.625 0.90625 -2.703125 0.84375 0 L 7.1875 0 L 7.03125 -6.6875 L 7.59375 -6.6875 L 9.921875 0 L 16.875 0 Z M 14.359375 -5.984375 "/></g></g></g><g fill="#ff3131" fill-opacity="1"><g transform="translate(426.416398, 19.664515)"><g/></g></g><g fill="#ff3131" fill-opacity="1"><g transform="translate(431.476156, 19.664515)"><g><path d="M 16.59375 -6.796875 L 15.53125 -6.796875 L 15.53125 -8.359375 L 10.015625 -8.359375 L 10.015625 -6.796875 L 9.71875 -6.796875 C 8.4375 -6.796875 6.140625 -6.546875 5.078125 -5.625 L 4.8125 -5.921875 C 9 -8.375 11.953125 -11.015625 11.953125 -16.09375 L 5.609375 -16.09375 C 5.046875 -12.359375 3.9375 -10.796875 0.53125 -8.671875 L 0.53125 -1.265625 L 10 -1.265625 L 10 0 L 15.546875 0 L 15.546875 -1.265625 L 16.59375 -1.265625 Z M 16.59375 -6.796875 "/></g></g></g><g fill="#ff3131" fill-opacity="1"><g transform="translate(448.595014, 19.664515)"><g/></g></g><g fill="#ff3131" fill-opacity="1"><g transform="translate(453.654772, 19.664515)"><g><path d="M 17.015625 0 C 16.03125 -5.046875 14.8125 -11.40625 13.984375 -16.09375 L 3 -16.09375 C 2.15625 -11.21875 0.953125 -4.859375 0 0 L 6.453125 0 C 6.5 -0.46875 6.625 -1.40625 6.796875 -2.640625 L 8.484375 -2.640625 C 9 -2.640625 9.5625 -2.640625 10.078125 -2.640625 L 10.421875 0 Z M 7.296875 -5.96875 L 8.3125 -12.640625 L 8.5625 -12.640625 C 8.984375 -9.78125 9.296875 -7.90625 9.59375 -5.96875 Z M 7.296875 -5.96875 "/></g></g></g><g fill="#ff3131" fill-opacity="1"><g transform="translate(470.668219, 19.664515)"><g><path d="M 0.84375 0 L 7.171875 0 C 7.0625 -2.703125 7.0625 -5.375 7.0625 -8.078125 C 7.0625 -10.765625 7.0625 -13.421875 7.171875 -16.09375 L 0.84375 -16.09375 C 0.953125 -13.421875 0.953125 -10.734375 0.953125 -8.0625 C 0.953125 -5.375 0.953125 -2.671875 0.84375 0 Z M 0.84375 0 "/></g></g></g><g fill="#ff3131" fill-opacity="1"><g transform="translate(478.679512, 19.664515)"><g><path d="M 0.84375 0 L 8.90625 0 C 14.234375 0 16.25 -2.640625 16.25 -8.0625 C 16.25 -13.375 13.90625 -16.09375 8.421875 -16.09375 L 0.84375 -16.09375 C 0.921875 -13.6875 0.96875 -10.734375 0.96875 -8.0625 C 0.96875 -5.375 0.921875 -2.671875 0.84375 0 Z M 7.171875 -4.21875 L 7.171875 -11.875 L 8.1875 -11.875 C 9.515625 -11.875 9.875 -10.734375 9.875 -8 C 9.875 -5.28125 9.65625 -4.21875 8.3125 -4.21875 Z M 7.171875 -4.21875 "/></g></g></g></svg>