<svg xmlns="http://www.w3.org/2000/svg" xmlns:xlink="http://www.w3.org/1999/xlink" width="696" zoomAndPan="magnify" viewBox="0 0 522 30.000001" height="40" preserveAspectRatio="xMidYMid meet" version="1.0"><defs><g/><clipPath id="5bb964ae34"><path d="M 36.125 4.59375 L 141.714844 4.59375 L 141.714844 25.054688 L 36.125 25.054688 Z M 36.125 4.59375 " clip-rule="nonzero"/></clipPath><clipPath id="9165cea9f3"><path d="M 137.675781 4.59375 L 40.148438 4.59375 L 36.125 8.617188 L 36.125 21.03125 L 40.148438 25.054688 L 137.675781 25.054688 L 141.703125 21.03125 L 141.703125 8.617188 Z M 137.675781 4.59375 " clip-rule="nonzero"/></clipPath><clipPath id="5ce5b6e7b3"><path d="M 36.128906 4.59375 L 141.367188 4.59375 L 141.367188 24.914062 L 36.128906 24.914062 Z M 36.128906 4.59375 " clip-rule="nonzero"/></clipPath><clipPath id="ed0ffa2b81"><path d="M 137.664062 4.59375 L 40.15625 4.59375 L 36.128906 8.617188 L 36.128906 21.027344 L 40.15625 25.050781 L 137.664062 25.050781 L 141.6875 21.027344 L 141.6875 8.617188 Z M 137.664062 4.59375 " clip-rule="nonzero"/></clipPath><clipPath id="be0ac264cc"><path d="M 372.433594 4.59375 L 491.808594 4.59375 L 491.808594 26.128906 L 372.433594 26.128906 Z M 372.433594 4.59375 " clip-rule="nonzero"/></clipPath><clipPath id="c62658df7e"><path d="M 487.5625 4.59375 L 376.667969 4.59375 L 372.433594 8.828125 L 372.433594 21.894531 L 376.667969 26.128906 L 487.5625 26.128906 L 491.796875 21.894531 L 491.796875 8.828125 Z M 487.5625 4.59375 " clip-rule="nonzero"/></clipPath><clipPath id="b9ef518fe5"><path d="M 372.433594 4.59375 L 491.464844 4.59375 L 491.464844 26.367188 L 372.433594 26.367188 Z M 372.433594 4.59375 " clip-rule="nonzero"/></clipPath><clipPath id="cb290498a4"><path d="M 487.558594 4.59375 L 376.667969 4.59375 L 372.433594 8.828125 L 372.433594 21.894531 L 376.667969 26.128906 L 487.558594 26.128906 L 491.792969 21.894531 L 491.792969 8.828125 Z M 487.558594 4.59375 " clip-rule="nonzero"/></clipPath><clipPath id="d889fdc1f9"><path d="M 193.800781 4.59375 L 335.917969 4.59375 L 335.917969 25.054688 L 193.800781 25.054688 Z M 193.800781 4.59375 " clip-rule="nonzero"/></clipPath><clipPath id="2e1bfcccfb"><path d="M 331.855469 4.59375 L 197.824219 4.59375 L 193.800781 8.617188 L 193.800781 21.03125 L 197.824219 25.054688 L 331.855469 25.054688 L 335.878906 21.03125 L 335.878906 8.617188 Z M 331.855469 4.59375 " clip-rule="nonzero"/></clipPath><clipPath id="dc859dbec7"><path d="M 193.8125 4.59375 L 335.925781 4.59375 L 335.925781 24.914062 L 193.8125 24.914062 Z M 193.8125 4.59375 " clip-rule="nonzero"/></clipPath><clipPath id="a70a47345f"><path d="M 331.839844 4.59375 L 197.835938 4.59375 L 193.8125 8.617188 L 193.8125 21.027344 L 197.835938 25.050781 L 331.839844 25.050781 L 335.863281 21.027344 L 335.863281 8.617188 Z M 331.839844 4.59375 " clip-rule="nonzero"/></clipPath></defs><g clip-path="url(#5bb964ae34)"><g clip-path="url(#9165cea9f3)"><path fill="#f9a72b" d="M 36.125 4.59375 L 141.714844 4.59375 L 141.714844 25.054688 L 36.125 25.054688 Z M 36.125 4.59375 " fill-opacity="1" fill-rule="nonzero"/></g></g><g clip-path="url(#5ce5b6e7b3)"><g clip-path="url(#ed0ffa2b81)"><path stroke-linecap="butt" transform="matrix(0.725806, 0, 0, 0.725806, 36.130581, 4.592398)" fill="none" stroke-linejoin="miter" d="M 139.890566 0.00186293 L 5.546476 0.00186293 L -0.00230808 5.545265 L -0.00230808 22.643702 L 5.546476 28.187104 L 139.890566 28.187104 L 145.433969 22.643702 L 145.433969 5.545265 Z M 139.890566 0.00186293 " stroke="#7d4506" stroke-width="2" stroke-opacity="1" stroke-miterlimit="4"/></g></g><g clip-path="url(#be0ac264cc)"><g clip-path="url(#c62658df7e)"><path fill="#f9a72b" d="M 372.433594 4.59375 L 491.808594 4.59375 L 491.808594 26.128906 L 372.433594 26.128906 Z M 372.433594 4.59375 " fill-opacity="1" fill-rule="nonzero"/></g></g><g clip-path="url(#b9ef518fe5)"><g clip-path="url(#cb290498a4)"><path stroke-linecap="butt" transform="matrix(0.725806, 0, 0, 0.725806, 372.432317, 4.592472)" fill="none" stroke-linejoin="miter" d="M 158.618437 0.00176053 L 5.835788 0.00176053 L 0.00175935 5.835789 L 0.00175935 23.838394 L 5.835788 29.672422 L 158.618437 29.672422 L 164.452466 23.838394 L 164.452466 5.835789 Z M 158.618437 0.00176053 " stroke="#7d4506" stroke-width="2" stroke-opacity="1" stroke-miterlimit="4"/></g></g><g clip-path="url(#d889fdc1f9)"><g clip-path="url(#2e1bfcccfb)"><path fill="#f9a72b" d="M 193.800781 4.59375 L 335.917969 4.59375 L 335.917969 25.054688 L 193.800781 25.054688 Z M 193.800781 4.59375 " fill-opacity="1" fill-rule="nonzero"/></g></g><g clip-path="url(#dc859dbec7)"><g clip-path="url(#a70a47345f)"><path stroke-linecap="butt" transform="matrix(0.725806, 0, 0, 0.725806, 193.812584, 4.592398)" fill="none" stroke-linejoin="miter" d="M 190.170881 0.00186293 L 5.543287 0.00186293 L -0.000115516 5.545265 L -0.000115516 22.643702 L 5.543287 28.187104 L 190.170881 28.187104 L 195.714283 22.643702 L 195.714283 5.545265 Z M 190.170881 0.00186293 " stroke="#7d4506" stroke-width="2" stroke-opacity="1" stroke-miterlimit="4"/></g></g><g fill="#7d4506" fill-opacity="1"><g transform="translate(199.41018, 20.490696)"><g><path d="M 14.171875 -13.9375 L 8.6875 -13.9375 C 8.75 -12 8.765625 -10.0625 8.765625 -8.46875 L 6.171875 -8.46875 C 6.171875 -10.4375 6.1875 -12.359375 6.203125 -13.9375 L 0.734375 -13.9375 C 0.78125 -11.59375 0.828125 -9.046875 0.828125 -6.953125 C 0.828125 -4.875 0.78125 -2.3125 0.734375 0 L 6.203125 0 C 6.1875 -1.546875 6.171875 -3.609375 6.171875 -5.515625 L 8.765625 -5.515625 C 8.765625 -3.984375 8.75 -1.921875 8.6875 0 L 14.171875 0 C 14.125 -1.46875 14.125 -4.078125 14.125 -6.953125 C 14.125 -9.796875 14.125 -12.421875 14.171875 -13.9375 Z M 14.171875 -13.9375 "/></g></g></g><g fill="#7d4506" fill-opacity="1"><g transform="translate(214.30918, 20.490696)"><g><path d="M 0.734375 0 L 12.328125 0 L 12.328125 -3.953125 L 6.1875 -3.953125 L 6.1875 -5.609375 L 11.796875 -5.421875 L 11.796875 -8.515625 L 6.1875 -8.328125 L 6.1875 -9.984375 L 12.3125 -9.984375 L 12.3125 -13.9375 L 0.734375 -13.9375 C 0.78125 -12.3125 0.84375 -9.40625 0.84375 -6.984375 C 0.84375 -4.71875 0.78125 -1.421875 0.734375 0 Z M 0.734375 0 "/></g></g></g><g fill="#7d4506" fill-opacity="1"><g transform="translate(227.18148, 20.490696)"><g><path d="M 14.734375 0 C 13.875 -4.359375 12.828125 -9.875 12.109375 -13.9375 L 2.59375 -13.9375 C 1.859375 -9.71875 0.828125 -4.203125 0 0 L 5.59375 0 C 5.625 -0.40625 5.734375 -1.21875 5.875 -2.28125 L 7.34375 -2.28125 C 7.796875 -2.28125 8.28125 -2.28125 8.734375 -2.28125 L 9.015625 0 Z M 6.3125 -5.171875 L 7.203125 -10.9375 L 7.421875 -10.9375 C 7.78125 -8.46875 8.0625 -6.84375 8.3125 -5.171875 Z M 6.3125 -5.171875 "/></g></g></g><g fill="#7d4506" fill-opacity="1"><g transform="translate(241.91615, 20.490696)"><g><path d="M 0.734375 0 L 6.234375 0 C 6.234375 -0.28125 6.1875 -3.890625 6.234375 -4.53125 L 7.671875 -4.53125 C 8.765625 -4.53125 8.84375 -4.171875 8.84375 -3.171875 C 8.84375 -1.9375 8.90625 -1.015625 9.046875 0 L 14.984375 0 C 14.734375 -0.671875 14.4375 -2.609375 14.4375 -3.3125 C 14.4375 -5.109375 13.1875 -6.03125 9.53125 -6.03125 L 9.53125 -6.359375 C 12.96875 -6.359375 14.4375 -7.234375 14.4375 -10.1875 C 14.4375 -13.265625 12.171875 -13.9375 8.203125 -13.9375 L 0.734375 -13.9375 C 0.78125 -11.59375 0.828125 -9.296875 0.828125 -6.953125 C 0.828125 -4.640625 0.78125 -2.34375 0.734375 0 Z M 6.15625 -7.53125 L 6.15625 -10.265625 L 7.203125 -10.265625 C 8.109375 -10.265625 8.75 -9.984375 8.75 -8.9375 C 8.75 -7.84375 8.078125 -7.53125 7.265625 -7.53125 Z M 6.15625 -7.53125 "/></g></g></g><g fill="#7d4506" fill-opacity="1"><g transform="translate(257.435945, 20.490696)"><g><path d="M 0.734375 0 L 8.21875 0 C 12.4375 0 14.453125 -0.78125 14.453125 -3.859375 C 14.453125 -6.03125 13.296875 -6.875 8.625 -7.046875 L 8.625 -7.34375 C 13.25 -7.53125 14.125 -8.578125 14.125 -10.625 C 14.125 -13.609375 11.671875 -13.9375 7.890625 -13.9375 L 0.734375 -13.9375 C 0.75 -12.3125 0.828125 -8.859375 0.828125 -6.984375 C 0.828125 -5.703125 0.75 -1.28125 0.734375 0 Z M 6.125 -8.34375 L 6.125 -10.546875 L 7.21875 -10.546875 C 7.875 -10.546875 8.453125 -10.3125 8.453125 -9.484375 C 8.453125 -8.609375 7.875 -8.34375 7.28125 -8.34375 Z M 6.125 -3.796875 L 6.125 -5.984375 L 7.265625 -5.984375 C 8.234375 -5.984375 8.890625 -5.765625 8.890625 -4.9375 C 8.890625 -4.03125 8.25 -3.796875 7.328125 -3.796875 Z M 6.125 -3.796875 "/></g></g></g><g fill="#7d4506" fill-opacity="1"><g transform="translate(272.426236, 20.490696)"><g><path d="M 0.734375 0 L 6.234375 0 C 6.234375 -0.28125 6.1875 -3.890625 6.234375 -4.53125 L 7.671875 -4.53125 C 8.765625 -4.53125 8.84375 -4.171875 8.84375 -3.171875 C 8.84375 -1.9375 8.90625 -1.015625 9.046875 0 L 14.984375 0 C 14.734375 -0.671875 14.4375 -2.609375 14.4375 -3.3125 C 14.4375 -5.109375 13.1875 -6.03125 9.53125 -6.03125 L 9.53125 -6.359375 C 12.96875 -6.359375 14.4375 -7.234375 14.4375 -10.1875 C 14.4375 -13.265625 12.171875 -13.9375 8.203125 -13.9375 L 0.734375 -13.9375 C 0.78125 -11.59375 0.828125 -9.296875 0.828125 -6.953125 C 0.828125 -4.640625 0.78125 -2.34375 0.734375 0 Z M 6.15625 -7.53125 L 6.15625 -10.265625 L 7.203125 -10.265625 C 8.109375 -10.265625 8.75 -9.984375 8.75 -8.9375 C 8.75 -7.84375 8.078125 -7.53125 7.265625 -7.53125 Z M 6.15625 -7.53125 "/></g></g></g><g fill="#7d4506" fill-opacity="1"><g transform="translate(287.94603, 20.490696)"><g><path d="M 0.734375 0 L 12.328125 0 L 12.328125 -3.953125 L 6.1875 -3.953125 L 6.1875 -5.609375 L 11.796875 -5.421875 L 11.796875 -8.515625 L 6.1875 -8.328125 L 6.1875 -9.984375 L 12.3125 -9.984375 L 12.3125 -13.9375 L 0.734375 -13.9375 C 0.78125 -12.3125 0.84375 -9.40625 0.84375 -6.984375 C 0.84375 -4.71875 0.78125 -1.421875 0.734375 0 Z M 0.734375 0 "/></g></g></g><g fill="#7d4506" fill-opacity="1"><g transform="translate(300.818329, 20.490696)"><g><path d="M 14.734375 0 C 13.875 -4.359375 12.828125 -9.875 12.109375 -13.9375 L 2.59375 -13.9375 C 1.859375 -9.71875 0.828125 -4.203125 0 0 L 5.59375 0 C 5.625 -0.40625 5.734375 -1.21875 5.875 -2.28125 L 7.34375 -2.28125 C 7.796875 -2.28125 8.28125 -2.28125 8.734375 -2.28125 L 9.015625 0 Z M 6.3125 -5.171875 L 7.203125 -10.9375 L 7.421875 -10.9375 C 7.78125 -8.46875 8.0625 -6.84375 8.3125 -5.171875 Z M 6.3125 -5.171875 "/></g></g></g><g fill="#7d4506" fill-opacity="1"><g transform="translate(315.553, 20.490696)"><g><path d="M 12.4375 -5.1875 C 11.953125 -6.375 11.65625 -6.515625 8.53125 -6.84375 L 8.53125 -7.125 C 11.546875 -7.484375 12 -7.640625 12.4375 -8.75 L 14.5 -13.9375 L 8.734375 -13.9375 L 6.59375 -8.0625 L 6.078125 -8.0625 L 6.234375 -13.9375 L 0.734375 -13.9375 C 0.78125 -11.578125 0.828125 -9.015625 0.828125 -6.953125 C 0.828125 -4.875 0.78125 -2.34375 0.734375 0 L 6.234375 0 L 6.078125 -5.796875 L 6.578125 -5.796875 L 8.578125 0 L 14.609375 0 Z M 12.4375 -5.1875 "/></g></g></g><g fill="#7d4506" fill-opacity="1"><g transform="translate(50.395636, 21.152075)"><g><path d="M 3.5625 0 L 9.953125 0 C 9.90625 -2.359375 9.890625 -4.75 9.890625 -7.171875 L 9.90625 -11.34375 C 11.046875 -11.34375 12.75 -11.296875 13.625 -11.265625 L 13.625 -16.0625 L 0 -16.0625 L 0 -11.265625 C 1.015625 -11.296875 2.546875 -11.34375 3.640625 -11.34375 C 3.65625 -10.625 3.6875 -8.96875 3.6875 -7.75 C 3.6875 -5.4375 3.625 -2.59375 3.5625 0 Z M 3.5625 0 "/></g></g></g><g fill="#7d4506" fill-opacity="1"><g transform="translate(64.013965, 21.152075)"><g><path d="M 0.84375 0 L 7.171875 0 C 7.171875 -0.3125 7.140625 -4.484375 7.171875 -5.21875 L 8.84375 -5.21875 C 10.109375 -5.21875 10.1875 -4.796875 10.1875 -3.65625 C 10.1875 -2.234375 10.265625 -1.171875 10.421875 0 L 17.265625 0 C 16.984375 -0.78125 16.625 -3.015625 16.625 -3.8125 C 16.625 -5.890625 15.203125 -6.953125 10.984375 -6.953125 L 10.984375 -7.328125 C 14.9375 -7.328125 16.625 -8.328125 16.625 -11.75 C 16.625 -15.28125 14.015625 -16.0625 9.453125 -16.0625 L 0.84375 -16.0625 C 0.90625 -13.359375 0.953125 -10.71875 0.953125 -8.015625 C 0.953125 -5.34375 0.90625 -2.6875 0.84375 0 Z M 7.09375 -8.671875 L 7.09375 -11.828125 L 8.296875 -11.828125 C 9.34375 -11.828125 10.078125 -11.515625 10.078125 -10.296875 C 10.078125 -9.03125 9.296875 -8.671875 8.375 -8.671875 Z M 7.09375 -8.671875 "/></g></g></g><g fill="#7d4506" fill-opacity="1"><g transform="translate(81.905123, 21.152075)"><g><path d="M 16.984375 0 C 16 -5.03125 14.78125 -11.390625 13.953125 -16.0625 L 2.984375 -16.0625 C 2.140625 -11.203125 0.953125 -4.84375 0 0 L 6.4375 0 C 6.484375 -0.46875 6.609375 -1.40625 6.78125 -2.625 L 8.453125 -2.625 C 8.984375 -2.625 9.53125 -2.625 10.0625 -2.625 L 10.390625 0 Z M 7.28125 -5.953125 L 8.296875 -12.609375 L 8.546875 -12.609375 C 8.96875 -9.765625 9.28125 -7.890625 9.578125 -5.953125 Z M 7.28125 -5.953125 "/></g></g></g><g fill="#7d4506" fill-opacity="1"><g transform="translate(98.891193, 21.152075)"><g><path d="M 0.84375 0 L 8.875 0 C 14.203125 0 16.203125 -2.625 16.203125 -8.046875 C 16.203125 -13.34375 13.875 -16.0625 8.390625 -16.0625 L 0.84375 -16.0625 C 0.921875 -13.65625 0.96875 -10.71875 0.96875 -8.046875 C 0.96875 -5.359375 0.921875 -2.671875 0.84375 0 Z M 7.15625 -4.203125 L 7.15625 -11.84375 L 8.171875 -11.84375 C 9.484375 -11.84375 9.84375 -10.71875 9.84375 -7.984375 C 9.84375 -5.265625 9.640625 -4.203125 8.296875 -4.203125 Z M 7.15625 -4.203125 "/></g></g></g><g fill="#7d4506" fill-opacity="1"><g transform="translate(115.729934, 21.152075)"><g><path d="M 0.84375 0 L 14.203125 0 L 14.203125 -4.546875 L 7.140625 -4.546875 L 7.140625 -6.46875 L 13.59375 -6.25 L 13.59375 -9.8125 L 7.140625 -9.59375 L 7.140625 -11.515625 L 14.1875 -11.515625 L 14.1875 -16.0625 L 0.84375 -16.0625 C 0.90625 -14.1875 0.96875 -10.84375 0.96875 -8.046875 C 0.96875 -5.4375 0.90625 -1.640625 0.84375 0 Z M 0.84375 0 "/></g></g></g><g fill="#7d4506" fill-opacity="1"><g transform="translate(373.684983, 22.578268)"><g><path d="M 16.53125 0 C 15.5625 -4.890625 14.375 -11.078125 13.578125 -15.625 L 2.90625 -15.625 C 2.09375 -10.890625 0.921875 -4.71875 0 0 L 6.265625 0 C 6.3125 -0.453125 6.4375 -1.375 6.59375 -2.5625 L 8.234375 -2.5625 C 8.75 -2.5625 9.28125 -2.5625 9.796875 -2.5625 L 10.125 0 Z M 7.09375 -5.796875 L 8.078125 -12.265625 L 8.3125 -12.265625 C 8.71875 -9.5 9.03125 -7.6875 9.328125 -5.796875 Z M 7.09375 -5.796875 "/></g></g></g><g fill="#7d4506" fill-opacity="1"><g transform="translate(390.213426, 22.578268)"><g><path d="M 8.78125 0.25 C 12.765625 0.25 15.953125 -1.5 15.953125 -4.75 C 15.953125 -7.375 14.90625 -8.609375 8.578125 -8.609375 C 7.3125 -8.609375 7.109375 -9.203125 7.109375 -10.140625 C 7.109375 -10.625 7.109375 -10.921875 7.3125 -11.40625 C 7.640625 -11.609375 7.96875 -11.640625 8.078125 -11.640625 C 9.953125 -11.640625 9.828125 -10.65625 9.875 -9.15625 L 16.0625 -9.546875 C 15.765625 -13.96875 13.3125 -15.9375 8.28125 -15.9375 C 4.0625 -15.9375 0.90625 -14.28125 0.90625 -10.84375 C 0.90625 -8.28125 2.21875 -6.375 8.3125 -6.375 C 9.671875 -6.375 9.828125 -6 9.828125 -5.0625 C 9.828125 -4.65625 9.828125 -4.46875 9.625 -4.078125 C 9.328125 -3.875 8.953125 -3.828125 8.875 -3.828125 C 7.515625 -3.828125 7.328125 -4.9375 7.328125 -5.640625 L 0.609375 -5.09375 C 1.046875 -0.8125 3.90625 0.25 8.78125 0.25 Z M 8.78125 0.25 "/></g></g></g><g fill="#7d4506" fill-opacity="1"><g transform="translate(406.885246, 22.578268)"><g><path d="M 13.953125 -5.8125 C 13.390625 -7.15625 13.0625 -7.3125 9.5625 -7.6875 L 9.5625 -7.984375 C 12.953125 -8.40625 13.453125 -8.5625 13.953125 -9.8125 L 16.265625 -15.625 L 9.796875 -15.625 L 7.390625 -9.03125 L 6.828125 -9.03125 L 6.984375 -15.625 L 0.8125 -15.625 C 0.875 -12.984375 0.921875 -10.125 0.921875 -7.796875 C 0.921875 -5.46875 0.875 -2.625 0.8125 0 L 6.984375 0 L 6.828125 -6.5 L 7.375 -6.5 L 9.625 0 L 16.390625 0 Z M 13.953125 -5.8125 "/></g></g></g><g fill="#7d4506" fill-opacity="1"><g transform="translate(423.372734, 22.578268)"><g/></g></g><g fill="#7d4506" fill-opacity="1"><g transform="translate(428.288263, 22.578268)"><g><path d="M 16.125 -6.59375 L 15.078125 -6.59375 L 15.078125 -8.109375 L 9.734375 -8.109375 L 9.734375 -6.59375 L 9.4375 -6.59375 C 8.1875 -6.59375 5.96875 -6.34375 4.9375 -5.46875 L 4.671875 -5.75 C 8.75 -8.125 11.609375 -10.6875 11.609375 -15.625 L 5.453125 -15.625 C 4.890625 -12 3.828125 -10.484375 0.515625 -8.421875 L 0.515625 -1.234375 L 9.703125 -1.234375 L 9.703125 0 L 15.09375 0 L 15.09375 -1.234375 L 16.125 -1.234375 Z M 16.125 -6.59375 "/></g></g></g><g fill="#7d4506" fill-opacity="1"><g transform="translate(444.919116, 22.578268)"><g/></g></g><g fill="#7d4506" fill-opacity="1"><g transform="translate(449.834645, 22.578268)"><g><path d="M 16.53125 0 C 15.5625 -4.890625 14.375 -11.078125 13.578125 -15.625 L 2.90625 -15.625 C 2.09375 -10.890625 0.921875 -4.71875 0 0 L 6.265625 0 C 6.3125 -0.453125 6.4375 -1.375 6.59375 -2.5625 L 8.234375 -2.5625 C 8.75 -2.5625 9.28125 -2.5625 9.796875 -2.5625 L 10.125 0 Z M 7.09375 -5.796875 L 8.078125 -12.265625 L 8.3125 -12.265625 C 8.71875 -9.5 9.03125 -7.6875 9.328125 -5.796875 Z M 7.09375 -5.796875 "/></g></g></g><g fill="#7d4506" fill-opacity="1"><g transform="translate(466.363088, 22.578268)"><g><path d="M 0.8125 0 L 6.96875 0 C 6.859375 -2.625 6.859375 -5.21875 6.859375 -7.84375 C 6.859375 -10.453125 6.859375 -13.03125 6.96875 -15.625 L 0.8125 -15.625 C 0.921875 -13.03125 0.921875 -10.421875 0.921875 -7.828125 C 0.921875 -5.21875 0.921875 -2.59375 0.8125 0 Z M 0.8125 0 "/></g></g></g><g fill="#7d4506" fill-opacity="1"><g transform="translate(474.146004, 22.578268)"><g><path d="M 0.8125 0 L 8.640625 0 C 13.828125 0 15.765625 -2.5625 15.765625 -7.828125 C 15.765625 -12.984375 13.5 -15.625 8.171875 -15.625 L 0.8125 -15.625 C 0.90625 -13.296875 0.9375 -10.421875 0.9375 -7.828125 C 0.9375 -5.21875 0.90625 -2.59375 0.8125 0 Z M 6.96875 -4.09375 L 6.96875 -11.53125 L 7.953125 -11.53125 C 9.234375 -11.53125 9.59375 -10.421875 9.59375 -7.765625 C 9.59375 -5.125 9.375 -4.09375 8.078125 -4.09375 Z M 6.96875 -4.09375 "/></g></g></g></svg>